<svg width="78" height="115" xmlns="http://www.w3.org/2000/svg"><path d="M48.672 20.069L48.249 20c-2.974 7.771-7.625 15.432-7.225 24 6.165-5.674 8.991-15.55 7.648-23.931zM75 65.002c-9.808-.113-18.64 5.517-21 12.746 9.707 1.7 15.907-5.507 21-12.746zM36.48 3c-5.355 10.93-3.66 22.834-.71 34 4.654-11.15 3.72-22.355.71-34zm-8.514 47c.45-11.407-3.576-22.303-9.366-32-2.007 11.47.998 23.606 9.366 32zM2 41c3.841 10.942 16.918 13.716 27 17-4.575-10.325-16.43-15.026-27-17zm54.411-3c-6.742 10.631-9.71 24.854-7.88 37 8.03-10.587 9.509-24.226 7.88-37zm-18.409 76.075c.896-15.686-.375-30.84-2.89-46.165-.252-2.197-1.122-4.865-3.173-5.9C20.598 56.48 3.134 54.677 0 40.1c2.243-1.662 4.575.122 6.682.956 9.596 2.812 18.423 7.291 23.132 16.629-.582-5.057-5.773-8.204-7.687-12.663-5.223-8.574-7.124-19.105-4.676-29.09 1.105-.099 1.724.267 2.14 1.062 3.786 6.913 7.29 14.079 8.864 21.85 1.676 7.754-.174 15.907 6.022 22.086-1.63-7.915 1.98-16.148.11-23.74-4.782-12.404-2.915-25.023 1.25-37.19 3.541.173 2.326 7.138 3.93 9.811 4.745 13.755-3.45 26.399-3.751 40.01 4.816-4.95 3.242-12.34 6.039-18.266 1.872-4.864 4.919-9.488 6.07-14.552-.076-.888.458-1.06 1.284-1.339 4.334 10.977-.35 26.222-10.638 31.942-7.738 13.163 1.316 29.722 1.035 44.235 3.046-5.126 5.62-10.54 6.85-16.258-.536-4.327-.62-8.55.317-12.854.387-10.243 4.833-19.115 8.716-28.1 3.052-3.195 2 5.814 2.256 7.437 1.327 11.839-.701 25.26-8.689 34.452-2.012 1.91-2.597 4.109-3.506 6.741 6.678-4.227 8.613-12.278 15.834-15.856 4.209-3.116 9.516-2.799 14.284-4.356 1.29-.487 1.273-.533 2.132.792-7.134 10.406-12.853 16.863-26.186 16.548C37.429 88.28 39.736 99.46 39.538 115l-1.536-.925" fill="#4E5F55"/></svg>