<?xml version="1.0" encoding="UTF-8"?>
<svg width="78px" height="115px" viewBox="0 0 78 115" version="1.1" xmlns="http://www.w3.org/2000/svg" xmlns:xlink="http://www.w3.org/1999/xlink">
    <title>Logo for Back to Plants</title>
    <g id="Page-1" stroke="none" stroke-width="1" fill="none" fill-rule="evenodd">
        <path d="M48.6718924,94.9313403 C48.5309217,94.9527965 48.390156,94.9763982 48.2491854,95 C45.2750738,87.2285796 40.6238625,79.5683021 41.0242355,71 C47.1894468,76.674081 50.0150065,86.550565 48.6718924,94.9313403 Z M75,49.998353 C65.192203,50.1105131 56.3605644,44.4806015 54,37.2515321 C63.7070492,35.5520436 69.9069804,42.7589877 75,49.998353 Z M36.4802189,112 C31.1248166,101.069838 32.8205469,89.1655708 35.770271,78 C40.424151,89.1502133 39.490727,100.354617 36.4802189,112 Z M27.965568,65 C28.4166352,76.406979 24.3897164,87.3027676 18.5997132,97 C16.5934447,85.5301786 19.5975087,73.3935776 27.965568,65 Z M2,74 C5.84125013,63.0584185 18.9183512,60.2842494 29,57 C24.4248543,67.3250056 12.5699691,72.0264499 2,74 Z M56.4113525,77 C49.6691618,66.3687968 46.7010131,52.1462932 48.5305968,40 C56.5618627,50.5867176 58.0395182,64.2263951 56.4113525,77 Z M38.0021866,0.925235054 C38.8980329,16.6108944 37.6268356,31.7652479 35.1126517,47.0903473 C34.8602642,49.2868596 33.990475,51.9548735 31.9386425,52.9890999 C20.5975732,58.5203588 3.13438522,60.3242421 -2.84217094e-14,74.8994027 C2.24263055,76.5617922 4.57527643,74.777627 6.68159192,73.9438321 C16.2781298,71.1321576 25.1047998,66.6528932 29.8138071,57.3151697 C29.2317224,62.3716767 24.040767,65.5185593 22.1269723,69.9783223 C16.9039301,78.551806 15.0028409,89.0825844 17.4506978,99.0673224 C18.5560774,99.1669964 19.1752019,98.8008027 19.5908229,98.0055772 C23.3770655,91.0933997 26.881418,83.92727 28.455394,76.1555122 C30.1310142,68.4023892 28.2811778,60.2488365 34.4773761,54.0699131 C32.8463329,61.9848982 36.4568518,70.2179734 34.5867727,77.8103179 C29.8054085,90.213668 31.6720421,102.833267 35.8368659,115 C39.3782582,114.826654 38.162836,107.862472 39.7669607,105.188608 C44.5121464,91.4335915 36.3162298,78.7903736 36.0160351,65.1792343 C40.8318549,70.1291335 39.2580942,77.5190963 42.0550296,83.4449343 C43.9274775,88.3090272 46.9735702,92.9330356 48.1243881,97.9969099 C48.0485857,98.8853089 48.5826479,99.0564882 49.4087216,99.3360089 C53.7425933,88.3588642 49.059643,73.113504 38.7709778,67.3935146 C31.0326749,54.2309084 40.087398,37.6715844 39.8057233,23.1588284 C42.852462,28.2846739 45.4265126,33.6984908 46.6555017,39.4167467 C46.1197167,43.7436832 46.0355158,47.9672621 46.9727088,52.2714469 C47.3596886,62.5138206 51.8061871,71.385893 55.6891208,80.3706404 C58.7410279,83.5658433 57.6888392,74.5566107 57.9453183,72.9340908 C59.2718599,61.0951991 57.2437156,47.6745238 49.2564708,38.482411 C47.2436162,36.5727865 46.6589473,34.3730239 45.7495341,31.7407627 C52.4278958,35.9675918 54.3634406,44.0188702 61.583617,47.5973847 C65.7928024,50.713065 71.1000456,50.3956249 75.8680581,51.95314 C77.1579906,52.4398093 77.1407628,52.4863961 78,51.1609481 C70.866178,40.754979 65.1467594,34.2984851 51.8137243,34.613325 C37.4285004,26.7197916 39.7357353,15.5385318 39.5380461,1.13686838e-13 L38.0021866,0.925235054" id="path26" fill="#4E5F55" fill-rule="nonzero" transform="translate(39.000000, 57.500000) scale(-1, 1) rotate(-180.000000) translate(-39.000000, -57.500000) "></path>
    </g>
</svg>