<?xml version="1.0" encoding="UTF-8" standalone="no"?>
<svg
   xmlns:dc="http://purl.org/dc/elements/1.1/"
   xmlns:cc="http://creativecommons.org/ns#"
   xmlns:rdf="http://www.w3.org/1999/02/22-rdf-syntax-ns#"
   xmlns:svg="http://www.w3.org/2000/svg"
   xmlns="http://www.w3.org/2000/svg"
   viewBox="0 0 226.77333 226.77333"
   height="226.77333"
   width="226.77333"
   xml:space="preserve"
   id="svg2"
   version="1.1"><metadata
     id="metadata8"><rdf:RDF><cc:Work
         rdf:about=""><dc:format>image/svg+xml</dc:format><dc:type
           rdf:resource="http://purl.org/dc/dcmitype/StillImage" /></cc:Work></rdf:RDF></metadata><defs
     id="defs6" /><g
     transform="matrix(1.3333333,0,0,-1.3333333,0,226.77333)"
     id="g10"><g
       transform="scale(0.1)"
       id="g12"><path
         id="path14"
         style="fill:#4E5F55;fill-opacity:1;fill-rule:nonzero;stroke:none"
         d="m 369.297,1076.3 c 5.754,-3.75 11.562,-7.36 17.394,-10.82 5.805,-3.46 11.672,-6.95 17.614,-10.47 1.617,2 3.476,4.42 5.562,7.27 2.09,2.82 4.117,5.79 6.125,8.83 2.348,3.63 3.992,7.53 4.91,11.69 0.926,4.15 0.985,8.26 0.164,12.34 -0.824,4.08 -2.527,8.04 -5.152,11.81 -2.621,3.8 -6.184,7.18 -10.726,10.12 -4.872,3.17 -9.442,4.88 -13.696,5.15 -4.265,0.26 -8.347,-0.68 -12.234,-2.83 -3.899,-2.14 -7.664,-5.29 -11.336,-9.44 -3.672,-4.16 -7.344,-9.05 -11.016,-14.73 l -4.984,-7.65 z m -17.707,24.54 c 2.59,3.96 4.75,8.17 6.504,12.59 1.754,4.43 2.679,8.79 2.789,13.07 0.121,4.27 -0.778,8.36 -2.668,12.25 -1.902,3.9 -5.238,7.39 -9.992,10.48 -4.664,3.02 -8.918,4.59 -12.801,4.68 -3.887,0.13 -7.449,-0.64 -10.684,-2.25 -3.226,-1.62 -6.152,-3.91 -8.8,-6.86 -2.637,-2.96 -5.032,-6.08 -7.18,-9.37 -1.903,-2.95 -3.442,-5.5 -4.602,-7.65 -1.16,-2.15 -2.117,-4.08 -2.941,-5.83 5.301,-3.75 10.547,-7.49 15.726,-11.17 5.18,-3.69 10.5,-7.3 15.938,-10.84 l 12.75,-8.28 z m -23.344,-17.72 c -7.496,4.84 -14.945,9.51 -22.398,13.93 -7.438,4.43 -14.903,8.84 -22.383,13.21 2.148,2.8 4.297,5.68 6.461,8.62 2.148,2.97 4.187,5.92 6.105,8.85 1.907,2.96 3.739,6.06 5.426,9.32 1.711,3.22 3.523,6.32 5.441,9.27 3.153,4.88 6.508,9.24 10.043,13.06 3.551,3.82 7.309,6.78 11.332,8.85 3.997,2.09 8.215,3.05 12.633,2.93 4.434,-0.14 9.02,-1.77 13.789,-4.86 8.399,-5.44 13.274,-12.36 14.602,-20.72 1.336,-8.37 0.207,-17.44 -3.387,-27.19 l 0.332,-0.21 c 7.012,9.78 14.629,16.18 22.844,19.16 8.211,2.95 17.199,1.27 26.953,-5.06 6.352,-4.14 10.832,-8.9 13.438,-14.3 2.621,-5.42 3.902,-11.07 3.839,-17 -0.062,-5.93 -1.187,-11.78 -3.394,-17.51 -2.195,-5.76 -4.926,-11.12 -8.172,-16.1 -1.754,-2.73 -3.605,-5.44 -5.512,-8.16 -1.918,-2.69 -3.765,-5.41 -5.531,-8.13 -1.769,-2.72 -3.551,-5.47 -5.363,-8.24 -1.801,-2.79 -3.461,-5.61 -5.016,-8.47 -7.039,5.04 -14.058,10.05 -21.07,15 -7.024,4.97 -14.278,9.89 -21.762,14.75 l -29.25,19" /><path
         id="path16"
         style="fill:#4E5F55;fill-opacity:1;fill-rule:nonzero;stroke:none"
         d="m 445.082,1196.97 c 2.602,2.36 5.375,4.74 8.27,7.17 2.91,2.43 5.656,4.84 8.277,7.18 2.805,2.53 5.605,5.11 8.363,7.68 2.774,2.59 5.516,5.2 8.242,7.83 l -51.211,23.21 z m 108.969,13.27 c -1.582,-1.06 -2.996,-2.16 -4.246,-3.29 -1.266,-1.15 -2.594,-2.33 -3.996,-3.59 -1.414,-1.29 -2.739,-2.47 -4.004,-3.6 -1.266,-1.13 -2.485,-2.44 -3.719,-3.9 -2.773,1.68 -6.246,3.59 -10.395,5.77 -4.16,2.18 -8.562,4.39 -13.242,6.65 -4.66,2.25 -9.383,4.54 -14.211,6.85 -4.8,2.3 -9.355,4.53 -13.636,6.68 -3.325,-2.81 -6.641,-5.67 -10.012,-8.6 -3.367,-2.94 -6.688,-5.91 -10.012,-8.9 -3.109,-2.8 -6.172,-5.59 -9.125,-8.35 -2.957,-2.77 -5.976,-5.6 -8.988,-8.5 3.84,-10.74 7.644,-20.83 11.426,-30.26 3.765,-9.43 7.07,-17.05 9.929,-22.85 -1.882,-1.33 -3.836,-2.91 -5.832,-4.72 -2.027,-1.82 -3.797,-3.58 -5.316,-5.32 -7.695,24.91 -15.512,49.55 -23.434,73.89 -7.941,24.34 -16.074,49.05 -24.437,74.09 l 2.875,2.59 c 7.648,-3.68 15.941,-7.62 24.867,-11.86 8.918,-4.25 17.965,-8.55 27.125,-12.84 9.152,-4.32 18.266,-8.57 27.332,-12.77 9.063,-4.21 17.535,-8.09 25.383,-11.66 7.867,-3.56 14.902,-6.75 21.137,-9.5 6.203,-2.76 11.058,-4.77 14.531,-6.01" /><path
         id="path18"
         style="fill:#4E5F55;fill-opacity:1;fill-rule:nonzero;stroke:none"
         d="m 660.832,1269.02 c -1.797,-2.31 -4.144,-4.73 -7.023,-7.3 -2.911,-2.54 -6.235,-5.19 -10.012,-7.95 -3.766,-2.75 -7.891,-5.24 -12.371,-7.45 -9.602,-4.71 -19.137,-7.69 -28.602,-8.96 -9.476,-1.25 -18.508,-0.53 -27.152,2.15 -8.609,2.68 -16.578,7.26 -23.891,13.69 -7.297,6.43 -13.48,14.79 -18.543,25.12 -5.07,10.3 -7.922,20.32 -8.547,30.03 -0.625,9.71 0.688,18.85 3.946,27.36 3.273,8.54 8.383,16.32 15.332,23.35 6.933,7.04 15.449,13.03 25.515,17.98 7.989,3.91 15.7,6.7 23.129,8.3 7.422,1.62 14.25,2.52 20.481,2.73 -0.153,-2.18 0.199,-4.87 1.019,-8.09 0.828,-3.21 1.524,-5.88 2.137,-8 l -0.93,-0.9 c -1.918,0.87 -4.418,1.66 -7.496,2.42 -3.094,0.73 -6.508,1.24 -10.254,1.51 -3.75,0.28 -7.726,0.09 -11.933,-0.55 -4.188,-0.64 -8.485,-2.02 -12.856,-4.17 -7.148,-3.52 -13.226,-7.93 -18.226,-13.24 -4.996,-5.32 -8.594,-11.51 -10.785,-18.53 -2.196,-7.02 -2.762,-14.84 -1.692,-23.43 1.035,-8.61 4.055,-17.94 8.988,-28.01 4.954,-10.07 10.512,-18.16 16.672,-24.26 6.137,-6.08 12.66,-10.4 19.575,-12.96 6.917,-2.55 13.988,-3.49 21.257,-2.77 7.254,0.7 14.461,2.81 21.618,6.32 4.375,2.15 8.14,4.69 11.308,7.59 3.172,2.91 5.93,5.89 8.274,8.92 2.347,3.05 4.343,6.05 5.957,9.03 1.617,2.98 2.957,5.55 3.992,7.73 l 1.097,-0.38 3.641,-11.53 c -0.625,-1.51 -1.828,-3.41 -3.625,-5.75" /><path
         id="path20"
         style="fill:#4E5F55;fill-opacity:1;fill-rule:nonzero;stroke:none"
         d="m 700.801,1276.07 c -1.102,8.3 -2.242,16.75 -3.43,25.33 -1.191,8.58 -2.578,17.25 -4.16,26.04 l -6.156,34.35 c -1.582,8.79 -3.293,17.37 -5.137,25.76 -1.855,8.38 -3.762,16.94 -5.742,25.66 1.765,0.04 3.492,0.11 5.121,0.2 1.625,0.09 3.242,0.26 4.844,0.56 1.597,0.27 3.168,0.66 4.738,1.16 1.57,0.49 3.184,1 4.875,1.6 1.172,-8.87 2.344,-17.55 3.535,-26.07 1.188,-8.5 2.559,-17.16 4.129,-25.93 l 1.98,-10.97 c 0.188,-1.07 0.688,-1.54 1.481,-1.39 0.531,0.09 1.355,0.85 2.48,2.28 3.95,4.83 8,10.24 12.219,16.21 4.223,5.98 8.445,12.16 12.649,18.57 4.218,6.36 8.347,12.84 12.386,19.41 4.039,6.56 7.926,12.93 11.625,19.11 1.512,-0.02 2.957,0 4.328,0.02 1.36,0.05 2.696,0.19 4.024,0.43 1.601,0.29 3.183,0.67 4.734,1.15 1.574,0.5 3.125,1.01 4.68,1.56 -3.945,-4.82 -8.352,-10.49 -13.238,-17 -4.864,-6.51 -9.75,-13.17 -14.657,-19.95 -4.894,-6.78 -9.543,-13.42 -13.925,-19.89 -4.407,-6.5 -8.032,-12.13 -10.895,-16.9 12.949,-10.18 26.055,-20.57 39.277,-31.19 13.258,-10.61 26.664,-21.21 40.239,-31.82 -2.039,-0.1 -4.067,-0.32 -6.063,-0.68 -1.992,-0.36 -3.988,-0.71 -5.988,-1.09 -1.875,-0.31 -3.699,-0.65 -5.481,-0.97 -1.804,-0.32 -3.617,-0.8 -5.425,-1.39 -5.778,4.61 -12.172,9.91 -19.231,15.93 -7.07,6 -13.961,11.82 -20.648,17.41 -6.703,5.59 -12.766,10.62 -18.16,15.09 -5.411,4.46 -9.368,7.55 -11.868,9.3 -1.265,0.88 -2.148,1.27 -2.683,1.16 -0.668,-0.1 -0.934,-0.56 -0.789,-1.37 l 3.121,-17.37 c 1.57,-8.77 3.289,-17.4 5.148,-25.85 1.864,-8.46 3.731,-16.8 5.606,-24.96 -3.106,-0.29 -6.395,-0.75 -9.86,-1.36 -3.457,-0.62 -6.687,-1.34 -9.683,-2.14" /><path
         id="path22"
         style="fill:#4E5F55;fill-opacity:1;fill-rule:nonzero;stroke:none"
         d="m 939.023,1410.52 c -3.445,0.66 -7.074,1.33 -10.867,2 -3.793,0.69 -7.586,1.28 -11.426,1.83 -3.824,0.53 -7.507,1.02 -11.074,1.45 -3.566,0.41 -6.781,0.7 -9.648,0.85 1.113,2.26 1.875,4.31 2.242,6.17 0.273,1.45 0.352,3.58 0.199,6.38 8.711,-1.99 17.235,-3.89 25.555,-5.72 8.312,-1.84 16.848,-3.62 25.625,-5.34 8.742,-1.7 17.32,-3.28 25.734,-4.71 8.395,-1.44 16.989,-2.89 25.807,-4.35 -1.186,-2.51 -1.928,-4.57 -2.236,-6.15 -0.352,-1.74 -0.411,-3.86 -0.215,-6.38 -2.711,0.93 -5.801,1.89 -9.262,2.84 -3.473,0.96 -7.07,1.92 -10.816,2.85 -3.735,0.93 -7.485,1.8 -11.282,2.6 -3.757,0.83 -7.371,1.56 -10.812,2.23 -3.063,-13.58 -5.957,-27.27 -8.672,-41.09 l -6.691,-34.23 c -1.719,-8.76 -3.227,-17.43 -4.555,-25.97 -1.352,-8.55 -2.617,-16.99 -3.824,-25.3 -3,0.87 -6.215,1.63 -9.672,2.31 -3.461,0.68 -6.738,1.18 -9.828,1.5 1.996,8.17 4.008,16.44 6,24.89 1.98,8.42 3.855,17 5.562,25.77 l 6.703,34.23 c 2.7,13.81 5.18,27.57 7.453,41.34" /><path
         id="path24"
         style="fill:#4E5F55;fill-opacity:1;fill-rule:nonzero;stroke:none"
         d="m 1134.05,1272.89 c 5.18,9.97 8.4,19.22 9.65,27.79 1.25,8.57 0.87,16.4 -1.18,23.47 -2.04,7.08 -5.5,13.33 -10.37,18.76 -4.88,5.42 -10.85,9.99 -17.93,13.66 -6.95,3.62 -14.07,5.87 -21.31,6.74 -7.23,0.87 -14.33,0.09 -21.31,-2.3 -6.95,-2.41 -13.58,-6.58 -19.87,-12.53 -6.29,-5.96 -12.02,-13.91 -17.2,-23.85 -5.18,-9.97 -8.4,-19.24 -9.65,-27.8 -1.26,-8.56 -0.87,-16.4 1.16,-23.48 2.06,-7.07 5.5,-13.31 10.37,-18.74 4.88,-5.43 10.8,-9.95 17.76,-13.57 7.08,-3.68 14.23,-5.96 21.5,-6.83 7.23,-0.87 14.33,-0.09 21.3,2.3 6.96,2.39 13.59,6.57 19.86,12.53 6.3,5.94 12.05,13.91 17.22,23.85 z m -117.17,60.91 c 5.31,10.19 11.67,18.42 19.12,24.7 7.46,6.24 15.59,10.6 24.38,13.04 8.83,2.42 18.12,2.92 27.88,1.49 9.78,-1.42 19.58,-4.69 29.43,-9.8 9.95,-5.18 18.31,-11.35 25.11,-18.54 6.78,-7.17 11.7,-15.07 14.78,-23.68 3.08,-8.61 4.18,-17.76 3.32,-27.46 -0.85,-9.69 -3.91,-19.63 -9.2,-29.83 -5.31,-10.19 -11.69,-18.42 -19.12,-24.7 -7.45,-6.25 -15.59,-10.6 -24.4,-13.04 -8.81,-2.44 -18.04,-2.84 -27.74,-1.23 -9.68,1.61 -19.51,4.99 -29.46,10.17 -9.84,5.11 -18.19,11.17 -25.06,18.17 -6.87,7 -11.84,14.8 -14.92,23.4 -3.08,8.62 -4.19,17.77 -3.34,27.47 0.84,9.69 3.92,19.65 9.22,29.84" /><path
         id="path26"
         style="fill:#4E5F55;fill-opacity:1;fill-rule:nonzero;stroke:none"
         d="m 878.008,1047.2 c -0.688,0.1 -1.375,0.21 -2.063,0.32 -14.515,-36.22 -37.215,-71.922 -35.261,-111.856 30.089,26.445 43.879,72.476 37.324,111.536 z M 996.121,837.801 c -44.781,0.512 -85.105,-25.188 -95.883,-58.188 44.321,-7.758 72.629,25.141 95.883,58.188 z M 820.184,1122 c -26.696,-49.82 -18.243,-104.08 -3.539,-154.973 23.199,50.823 18.546,101.893 3.539,154.973 z M 778.797,907.809 c 2.07,52.64 -16.41,102.921 -42.981,147.671 -9.207,-52.93 4.579,-108.937 42.981,-147.671 z m -120.582,42.504 c 17.644,-51.782 77.711,-64.911 124.019,-80.454 -21.015,48.864 -75.468,71.114 -124.019,80.454 z m 252.519,14.609 c -30.461,-49.469 -43.871,-115.649 -35.605,-172.168 36.285,49.262 42.961,112.73 35.605,172.168 z m -84.3,-351.242 c 4.16,72.39 -1.743,142.328 -13.418,213.054 -1.172,10.137 -5.211,22.45 -14.739,27.223 -52.664,25.527 -133.757,33.852 -148.312,101.117 10.414,7.672 21.246,-0.562 31.027,-4.41 44.563,-12.976 85.551,-33.648 107.418,-76.742 -2.703,23.336 -26.808,37.859 -35.695,58.441 -24.254,39.567 -33.082,88.167 -21.715,134.247 5.133,0.46 8.008,-1.23 9.938,-4.9 17.582,-31.9 33.855,-64.972 41.164,-100.839 7.781,-35.781 -0.809,-73.41 27.964,-101.926 -7.574,36.528 9.192,74.524 0.508,109.563 -22.203,57.242 -13.535,115.482 5.805,171.632 16.445,-0.8 10.801,-32.94 18.25,-45.28 22.035,-63.48 -16.024,-121.829 -17.418,-184.645 22.363,22.844 15.055,56.949 28.043,84.297 8.695,22.448 22.84,43.788 28.184,67.158 -0.352,4.1 2.128,4.89 5.964,6.18 20.125,-50.66 -1.621,-121.018 -49.398,-147.416 -35.934,-60.746 6.113,-137.168 4.805,-204.145 14.148,23.656 26.101,48.641 31.808,75.031 -2.488,19.969 -2.879,39.461 1.473,59.325 1.797,47.269 22.445,88.214 40.476,129.679 14.172,14.746 9.286,-26.832 10.477,-34.32 6.16,-54.637 -3.258,-116.574 -40.348,-158.996 -9.347,-8.813 -12.062,-18.965 -16.285,-31.113 31.012,19.507 40,56.664 73.528,73.179 19.546,14.379 44.191,12.914 66.332,20.102 5.99,2.246 5.91,2.461 9.9,-3.656 -33.127,-48.024 -59.686,-77.821 -121.6,-76.368 -66.8,-36.429 -56.086,-88.031 -57.004,-159.742 l -7.132,4.27" /><path
         id="path28"
         style="fill:#4E5F55;fill-opacity:1;fill-rule:nonzero;stroke:none"
         d="m 445.324,505.281 c 3.746,-4.883 8.18,-9.32 13.274,-13.359 4.246,-3.383 9.078,-6.344 14.414,-8.902 5.375,-2.571 11,-3.969 16.922,-4.258 5.945,-0.282 11.992,1.019 18.179,3.898 6.188,2.852 12.239,8.059 18.18,15.539 4.965,6.313 8.227,12.11 9.707,17.371 1.488,5.27 1.629,10.18 0.395,14.719 -1.219,4.539 -3.641,8.902 -7.254,13.082 -3.641,4.199 -8.121,8.391 -13.496,12.641 l -18.579,14.679 z m -3.855,29.879 c 7.664,9.711 15.023,19.352 22.051,28.949 7.019,9.602 14.168,19.422 21.421,29.442 3.059,-2.91 6.2,-5.821 9.399,-8.692 3.183,-2.89 6.461,-5.648 9.75,-8.25 1.644,-1.3 3.707,-2.808 6.156,-4.507 2.453,-1.711 4.906,-3.481 7.375,-5.301 2.469,-1.832 4.848,-3.551 7.176,-5.153 2.316,-1.589 4.238,-2.976 5.762,-4.179 2.054,-1.61 4.543,-3.719 7.453,-6.258 2.89,-2.551 5.758,-5.5 8.558,-8.91 2.789,-3.403 5.246,-7.141 7.395,-11.223 2.144,-4.078 3.441,-8.578 3.914,-13.476 0.488,-4.911 -0.106,-10.102 -1.77,-15.614 -1.644,-5.476 -4.918,-11.316 -9.796,-17.488 -7.661,-9.699 -15.844,-16 -24.532,-18.922 -8.683,-2.906 -17.203,-3.808 -25.582,-2.68 -8.379,1.141 -16.238,3.653 -23.57,7.543 -7.328,3.879 -13.473,7.778 -18.422,11.7 -3.152,2.507 -6.019,4.828 -8.578,6.961 -2.543,2.148 -5.09,4.449 -7.617,6.918 l -9.586,-12.11 c -7.649,-9.691 -15.024,-19.379 -22.125,-29.058 -7.098,-9.661 -14.02,-19.211 -20.809,-28.641 -2.929,2.801 -6.187,5.617 -9.754,8.437 -3.597,2.821 -7.086,5.352 -10.465,7.551 7.602,8.781 15.297,17.742 23.079,26.871 7.773,9.121 15.484,18.539 23.16,28.231 l 29.957,37.859" /><path
         id="path30"
         style="fill:#4E5F55;fill-opacity:1;fill-rule:nonzero;stroke:none"
         d="m 610.152,466.68 c 3.446,11.39 6.907,23 10.422,34.871 2.012,-1.102 3.992,-2.121 5.883,-3.063 1.922,-0.957 3.856,-1.769 5.836,-2.449 1.996,-0.66 4.055,-1.211 6.145,-1.629 2.054,-0.41 4.246,-0.808 6.531,-1.211 -4.508,-11.5 -8.883,-22.82 -13.149,-33.949 -4.261,-11.09 -8.379,-22.488 -12.386,-34.199 -7.618,-22.313 -14.188,-41.692 -19.598,-58.129 -5.453,-16.461 -10.297,-31.172 -14.563,-44.16 11.793,-4.032 23.129,-7.75 34.008,-11.203 10.864,-3.387 22.856,-6.36 35.899,-8.829 -1.918,-2.929 -3.246,-5.421 -3.961,-7.558 -0.672,-1.953 -1.082,-4.5 -1.219,-7.594 -7.512,2.973 -15.086,5.75 -22.703,8.352 -7.664,2.629 -15.297,5.23 -22.934,7.84 -7.953,2.718 -15.629,5.359 -23.008,7.89 -7.402,2.512 -15.14,4.961 -23.23,7.34 4.262,10.809 8.527,21.809 12.824,33 4.297,11.199 8.446,22.641 12.449,34.328 l 15.618,45.711 c 4.011,11.691 7.726,23.242 11.136,34.641" /><path
         id="path32"
         style="fill:#4E5F55;fill-opacity:1;fill-rule:nonzero;stroke:none"
         d="m 781.219,357.852 c 4.554,0.078 9.293,0.07 14.199,-0.032 4.906,-0.101 9.656,-0.101 14.215,-0.039 4.922,0.09 9.812,0.231 14.734,0.391 4.91,0.187 9.828,0.398 14.735,0.668 l -30.426,70.859 z M 899.242,272.52 c -2.472,0.339 -4.785,0.48 -6.965,0.449 -2.211,-0.039 -4.539,-0.071 -6.976,-0.117 -2.473,-0.051 -4.801,-0.09 -6.985,-0.122 -2.191,-0.05 -4.503,-0.261 -6.961,-0.691 -1.308,4.301 -3.046,9.461 -5.253,15.5 -2.211,6.039 -4.664,12.371 -7.301,18.981 -2.649,6.601 -5.36,13.308 -8.106,20.082 -2.742,6.796 -5.316,13.257 -7.695,19.398 -5.633,0.078 -11.316,0.121 -17.121,0.121 -5.777,0 -11.57,-0.062 -17.356,-0.133 -5.437,-0.109 -10.789,-0.25 -16.043,-0.429 -5.261,-0.18 -10.621,-0.411 -16.031,-0.7 -5.394,-14.711 -10.226,-28.679 -14.566,-41.961 -4.348,-13.277 -7.574,-24.23 -9.707,-32.878 -2.988,0.332 -6.231,0.449 -9.735,0.39 -3.523,-0.058 -6.75,-0.301 -9.722,-0.73 13.652,33.019 26.953,65.808 39.89,98.429 12.965,32.621 26.008,65.789 39.114,99.532 l 4.996,0.089 c 4.386,-10.781 9.16,-22.449 14.261,-35.019 5.137,-12.551 10.36,-25.231 15.676,-38.063 5.305,-12.828 10.594,-25.57 15.91,-38.207 5.289,-12.652 10.27,-24.41 14.934,-35.281 4.66,-10.879 8.863,-20.582 12.602,-29.129 3.73,-8.562 6.793,-15.07 9.14,-19.511" /><path
         id="path34"
         style="fill:#4E5F55;fill-opacity:1;fill-rule:nonzero;stroke:none"
         d="m 1042.33,395.93 c -31.43,14.601 -62.826,29.109 -94.135,43.468 1.965,-4.867 4.649,-11.347 8.063,-19.468 3.414,-8.11 8.18,-19.11 14.336,-32.969 1.601,-3.602 3.613,-8.02 6.051,-13.27 2.433,-5.293 4.996,-10.82 7.632,-16.613 2.664,-5.777 5.422,-11.637 8.227,-17.539 2.836,-5.91 5.453,-11.41 7.896,-16.469 2.44,-5.082 4.6,-9.48 6.47,-13.269 1.86,-3.762 3.17,-6.313 3.95,-7.61 -2.73,-0.793 -5.59,-1.89 -8.65,-3.222 -3.205,-1.418 -6.084,-2.899 -8.678,-4.469 -0.437,1.859 -1.492,5.18 -3.137,9.98 -1.632,4.782 -3.714,10.481 -6.261,17.032 -2.516,6.558 -5.258,13.699 -8.211,21.41 -2.91,7.699 -5.942,15.359 -9.055,23.008 -3.09,7.648 -6.172,15.09 -9.183,22.351 -3.032,7.25 -5.805,13.719 -8.305,19.348 -7.301,16.43 -13.625,30.543 -18.926,42.32 -5.332,11.762 -9.43,20.492 -12.34,26.172 l 3.836,1.707 c 14.813,-6.957 30.641,-14.43 47.528,-22.398 16.863,-7.969 33.582,-15.809 50.152,-23.508 16.57,-7.711 32.28,-14.992 47.1,-21.82 14.84,-6.821 27.7,-12.563 38.57,-17.133 l -15.5,34.902 c -7.98,17.957 -15.86,35.418 -23.68,52.34 -7.79,16.91 -15.43,32.738 -22.9,47.437 3.58,0.551 6.48,1.352 8.73,2.34 1.94,0.852 4.3,2.422 7.13,4.703 1.34,-3.91 3.51,-9.703 6.45,-17.429 2.92,-7.711 6.11,-15.942 9.51,-24.653 3.39,-8.75 6.76,-17.281 10.07,-25.648 3.32,-8.352 6.1,-15.02 8.3,-19.973 1.89,-4.277 4.18,-9.418 6.83,-15.386 2.59,-5.84 5.33,-11.903 8.21,-18.192 2.9,-6.289 5.81,-12.621 8.72,-19.019 2.94,-6.379 5.68,-12.34 8.22,-17.86 2.56,-5.511 4.74,-10.34 6.57,-14.441 1.66,-3.762 2.91,-6.602 3.75,-8.469 l -3.37,-1.5 c -28.54,14.57 -58.52,29.168 -89.97,43.809" /><path
         id="path36"
         style="fill:#4E5F55;fill-opacity:1;fill-rule:nonzero;stroke:none"
         d="m 1143.67,593.02 c -3.17,-3.29 -6.46,-6.77 -9.84,-10.442 -3.42,-3.668 -6.77,-7.387 -10.03,-11.18 -3.25,-3.777 -6.38,-7.5 -9.32,-11.097 -2.96,-3.621 -5.52,-6.942 -7.67,-9.961 -1.81,2.961 -3.67,5.351 -5.56,7.18 -1.48,1.429 -3.87,3.121 -7.18,5.082 8.31,8.089 16.4,16 24.27,23.757 7.86,7.762 15.82,15.801 23.87,24.153 8.02,8.316 15.78,16.558 23.25,24.718 7.46,8.141 15.09,16.52 22.85,25.098 2.09,-3.207 3.95,-5.617 5.56,-7.168 1.77,-1.691 4.15,-3.379 7.18,-5.09 -2.96,-2.261 -6.19,-4.949 -9.67,-8.039 -3.51,-3.07 -7.09,-6.312 -10.76,-9.711 -3.69,-3.41 -7.27,-6.89 -10.82,-10.429 -3.55,-3.532 -6.89,-6.93 -10.06,-10.2 13.52,-13.793 27.29,-27.429 41.29,-40.929 l 34.77,-33.532 c 8.91,-8.582 17.82,-16.89 26.74,-24.871 8.93,-8 17.76,-15.847 26.49,-23.531 -3.07,-2.629 -6.19,-5.598 -9.36,-8.887 -3.15,-3.281 -6.02,-6.511 -8.55,-9.679 -7.98,8.449 -16.15,16.988 -24.45,25.609 -8.34,8.629 -16.93,17.25 -25.84,25.809 l -34.76,33.55 c -14.02,13.5 -28.16,26.758 -42.4,39.79" /><path
         id="path38"
         style="fill:#4E5F55;fill-opacity:1;fill-rule:nonzero;stroke:none"
         d="m 1369.51,640.25 c 4.13,0.609 8.22,1.852 12.25,3.711 4.02,1.848 7.83,4.41 11.41,7.75 3.61,3.32 6.64,7.488 9.08,12.551 2.53,5.199 3.86,10.347 3.94,15.488 0.13,5.109 -0.77,9.941 -2.65,14.449 -1.84,4.52 -4.61,8.656 -8.31,12.395 -3.69,3.761 -8.08,6.855 -13.12,9.308 -7.73,3.778 -14.8,4.918 -21.15,3.43 -6.34,-1.508 -12.37,-4.281 -18.09,-8.32 -5.71,-4.055 -11.4,-8.637 -17.02,-13.801 -5.65,-5.172 -11.7,-9.57 -18.16,-13.262 -6.49,-3.687 -13.56,-5.929 -21.27,-6.777 -7.7,-0.844 -16.5,1.18 -26.44,5.988 -7.07,3.442 -12.93,7.77 -17.58,12.961 -4.68,5.199 -8.01,11.055 -10.04,17.586 -2.01,6.555 -2.66,13.559 -1.95,21.012 0.72,7.449 2.99,15.117 6.84,23.043 3.67,7.551 7.83,13.617 12.45,18.203 4.61,4.574 10.1,8.262 16.46,11 2.16,-2.805 4.61,-5.453 7.35,-7.949 2.75,-2.516 6.33,-5.426 10.75,-8.75 l -1.39,-2.848 c -2.74,0.367 -5.84,0.547 -9.26,0.562 -3.43,0 -6.86,-0.562 -10.34,-1.691 -3.47,-1.141 -6.77,-2.91 -9.91,-5.273 -3.14,-2.391 -5.76,-5.77 -7.93,-10.203 -2.15,-4.407 -3.36,-8.84 -3.65,-13.274 -0.31,-4.469 0.27,-8.73 1.72,-12.848 1.43,-4.109 3.7,-7.859 6.85,-11.226 3.16,-3.402 7,-6.188 11.54,-8.395 7.92,-3.875 15.05,-5.039 21.39,-3.55 6.36,1.507 12.42,4.265 18.23,8.257 5.8,4.008 11.47,8.61 17.03,13.817 5.55,5.179 11.44,9.691 17.66,13.488 6.2,3.809 13.01,6.199 20.37,7.191 7.34,1.02 15.68,-0.746 24.93,-5.222 7.74,-3.781 14.41,-8.66 20.07,-14.617 5.63,-5.942 9.82,-12.676 12.52,-20.141 2.72,-7.465 3.72,-15.453 3.02,-24.004 -0.72,-8.508 -3.31,-17.348 -7.76,-26.488 -4.77,-9.789 -10.03,-17.039 -15.75,-21.762 -5.72,-4.711 -11.36,-8.269 -16.89,-10.668 -3.18,3.32 -6.18,6.008 -9.05,8.078 -2.85,2.051 -6.58,4.531 -11.24,7.371 l 1.39,2.821 c 3.63,-0.2 7.53,0 11.7,0.609" /></g></g></svg>