<svg xmlns="http://www.w3.org/2000/svg" height="226.773" width="226.773"><path d="M49.24 83.267c.767.5 1.541.981 2.319 1.442.774.462 1.556.927 2.348 1.396.216-.266.464-.589.742-.969.279-.376.549-.772.817-1.177a4.727 4.727 0 00.654-1.559 3.92 3.92 0 00.022-1.645 4.2 4.2 0 00-.687-1.575c-.35-.507-.824-.957-1.43-1.35-.65-.422-1.259-.65-1.826-.686a2.94 2.94 0 00-1.631.377c-.52.286-1.022.706-1.512 1.259a16.5 16.5 0 00-1.469 1.964l-.664 1.02zm-2.361-3.272a9.38 9.38 0 00.867-1.679 5.07 5.07 0 00.372-1.743 3.466 3.466 0 00-.356-1.633c-.254-.52-.698-.985-1.332-1.397-.622-.403-1.19-.612-1.707-.624a2.93 2.93 0 00-1.425.3c-.43.216-.82.521-1.173.914-.352.395-.67.811-.957 1.25-.254.393-.46.733-.614 1.02-.155.286-.282.544-.392.777.707.5 1.406.999 2.097 1.49.69.491 1.4.973 2.125 1.445l1.7 1.104zm-3.113 2.362A93.98 93.98 0 0040.78 80.5c-.992-.59-1.987-1.179-2.985-1.761.287-.374.573-.758.862-1.15.286-.396.558-.789.814-1.18.254-.394.498-.808.723-1.242.228-.43.47-.843.726-1.236a12.67 12.67 0 011.339-1.742c.473-.509.974-.904 1.51-1.18a3.381 3.381 0 011.685-.39c.591.018 1.203.236 1.839.648 1.12.725 1.77 1.648 1.947 2.762.178 1.116.027 2.326-.452 3.626l.044.028c.935-1.304 1.95-2.158 3.046-2.555 1.095-.393 2.293-.17 3.594.675.847.552 1.444 1.186 1.792 1.906.35.723.52 1.476.511 2.267a6.648 6.648 0 01-.452 2.335 11.26 11.26 0 01-1.09 2.146c-.234.364-.48.726-.735 1.088-.255.359-.502.722-.737 1.084l-.715 1.099c-.24.372-.462.748-.669 1.13-.938-.673-1.874-1.34-2.81-2a87.982 87.982 0 00-2.9-1.967l-3.9-2.534m15.577-15.18c.347-.314.717-.632 1.103-.956.388-.324.754-.645 1.104-.957a93.547 93.547 0 002.214-2.068l-6.829-3.095zm14.53-1.769c-.211.141-.4.288-.567.439-.168.153-.346.31-.532.478-.189.172-.366.33-.534.48-.17.151-.332.326-.496.52-.37-.224-.833-.478-1.386-.769a60.252 60.252 0 00-1.766-.887c-.621-.3-1.25-.605-1.895-.913-.64-.307-1.247-.604-1.818-.89-.443.374-.885.755-1.335 1.146a120.957 120.957 0 00-2.551 2.3c-.395.37-.797.747-1.199 1.133.512 1.432 1.02 2.778 1.524 4.035.502 1.257.942 2.273 1.324 3.047a8.266 8.266 0 00-.778.629c-.27.243-.506.477-.709.71a687.069 687.069 0 00-3.124-9.853c-1.06-3.245-2.143-6.54-3.259-9.878l.384-.346c1.02.491 2.125 1.016 3.315 1.582 1.19.566 2.396 1.14 3.617 1.712a559.341 559.341 0 007.029 3.257c1.049.475 1.987.9 2.818 1.267.827.368 1.474.636 1.937.801M88.11 57.57a7.543 7.543 0 01-.935.974 20.07 20.07 0 01-1.335 1.06c-.503.367-1.053.699-1.65.993-1.28.628-2.551 1.026-3.813 1.195a8.373 8.373 0 01-3.62-.287c-1.149-.357-2.211-.968-3.186-1.825-.973-.857-1.798-1.972-2.473-3.35-.676-1.373-1.056-2.709-1.14-4.003-.083-1.295.093-2.514.527-3.648.436-1.139 1.118-2.176 2.044-3.114.925-.938 2.06-1.737 3.402-2.397 1.065-.521 2.094-.893 3.084-1.107.99-.216 1.9-.336 2.73-.364-.02.291.027.65.137 1.079.11.428.203.784.285 1.067l-.124.12a5.93 5.93 0 00-1-.323 8.678 8.678 0 00-1.367-.201 7.078 7.078 0 00-1.591.073 5.91 5.91 0 00-1.714.556c-.953.47-1.764 1.057-2.43 1.765a6.312 6.312 0 00-1.438 2.471c-.293.936-.369 1.979-.226 3.124.138 1.148.54 2.392 1.198 3.735.661 1.342 1.402 2.421 2.223 3.234.819.811 1.688 1.387 2.61 1.728.923.34 1.865.466 2.835.37.967-.094 1.928-.375 2.882-.843a6.39 6.39 0 001.508-1.012c.423-.388.79-.785 1.103-1.19.313-.406.58-.806.794-1.203.216-.398.395-.74.533-1.031l.146.05.485 1.538c-.083.201-.243.455-.483.767m5.329-.941a609.382 609.382 0 00-.457-3.377 87.562 87.562 0 00-.555-3.472l-.82-4.58a91.492 91.492 0 00-.686-3.434 643.654 643.654 0 00-.765-3.422c.235-.005.465-.014.683-.026.216-.012.432-.035.645-.075a4.55 4.55 0 00.632-.155c.21-.065.425-.133.65-.213.156 1.183.313 2.34.472 3.476a89.38 89.38 0 00.55 3.457l.264 1.463c.025.143.092.205.198.185.07-.012.18-.113.33-.304a38.801 38.801 0 001.63-2.161 87.037 87.037 0 001.686-2.476 89.306 89.306 0 001.651-2.588 239.08 239.08 0 001.55-2.548c.202.003.395 0 .577-.003a3.79 3.79 0 00.537-.057c.213-.039.424-.09.631-.153.21-.067.417-.135.624-.208a69.432 69.432 0 00-1.765 2.266c-.648.868-1.3 1.756-1.954 2.66-.653.904-1.273 1.79-1.857 2.652a49.515 49.515 0 00-1.452 2.254 639.561 639.561 0 015.236 4.158 594.85 594.85 0 005.366 4.243 6.293 6.293 0 00-.809.09c-.265.049-.531.095-.798.146-.25.041-.493.087-.73.13a5.199 5.199 0 00-.724.185 102.83 102.83 0 01-2.564-2.124 486.97 486.97 0 00-5.175-4.334 29.446 29.446 0 00-1.582-1.24c-.169-.117-.287-.169-.358-.154-.089.013-.124.074-.105.182l.416 2.316c.21 1.17.439 2.32.686 3.447.249 1.128.498 2.24.748 3.328a16.425 16.425 0 00-2.606.467m31.763-17.927c-.46-.088-.943-.177-1.449-.267a40.857 40.857 0 00-1.523-.244c-.51-.07-1.001-.136-1.477-.193a21.033 21.033 0 00-1.286-.113 3.39 3.39 0 00.299-.823c.036-.193.047-.477.026-.85 1.162.265 2.298.518 3.408.762a143.392 143.392 0 006.847 1.34c1.12.192 2.266.385 3.441.58-.158.335-.257.61-.298.82a3.145 3.145 0 00-.028.85 20.718 20.718 0 00-1.235-.378 56.396 56.396 0 00-1.443-.38 43.25 43.25 0 00-1.504-.347c-.5-.11-.983-.208-1.441-.297a197.96 197.96 0 00-1.157 5.479l-.892 4.564a89.015 89.015 0 00-.607 3.462 270.66 270.66 0 00-.51 3.374c-.4-.116-.829-.218-1.29-.308a14.64 14.64 0 00-1.31-.2c.266-1.09.534-2.192.8-3.319a90.67 90.67 0 00.742-3.436l.893-4.564c.36-1.841.691-3.676.994-5.512m26.004 18.351c.69-1.33 1.12-2.563 1.286-3.706.167-1.142.116-2.186-.157-3.129a6.317 6.317 0 00-1.383-2.501 8.35 8.35 0 00-2.39-1.822A8.26 8.26 0 00145.72 45a6.33 6.33 0 00-2.841.306c-.927.322-1.81.878-2.65 1.671-.838.795-1.602 1.855-2.293 3.18-.69 1.33-1.12 2.565-1.286 3.707-.168 1.141-.116 2.186.154 3.13a6.35 6.35 0 001.383 2.499 8.285 8.285 0 002.368 1.81c.944.49 1.897.794 2.867.91.964.116 1.91.012 2.84-.307.928-.318 1.812-.876 2.648-1.67.84-.792 1.606-1.855 2.296-3.18zm-15.623-8.122c.708-1.358 1.556-2.456 2.55-3.293.994-.832 2.078-1.413 3.25-1.739 1.177-.322 2.416-.389 3.717-.198 1.304.189 2.611.625 3.924 1.306 1.327.691 2.442 1.514 3.348 2.472.904.956 1.56 2.01 1.971 3.158.41 1.148.557 2.368.443 3.661-.114 1.292-.522 2.617-1.227 3.977-.708 1.359-1.559 2.456-2.55 3.294-.993.833-2.078 1.413-3.253 1.738-1.174.326-2.405.379-3.698.164-1.291-.214-2.602-.665-3.928-1.356-1.312-.681-2.426-1.489-3.342-2.422-.916-.934-1.578-1.974-1.989-3.12-.41-1.15-.559-2.37-.445-3.663.112-1.292.522-2.62 1.229-3.979m-18.516 38.214l-.275-.043c-1.936 4.83-4.962 9.59-4.702 14.914 4.012-3.526 5.85-9.663 4.977-14.871zm15.748 27.92c-5.97-.069-11.347 3.358-12.784 7.758 5.91 1.034 9.684-3.352 12.784-7.758zm-23.458-37.894c-3.56 6.643-2.433 13.878-.472 20.663 3.093-6.776 2.473-13.585.472-20.663zm-5.518 28.56c.276-7.02-2.188-13.724-5.731-19.69-1.228 7.057.61 14.525 5.73 19.69zm-16.078-5.668c2.353 6.904 10.361 8.655 16.536 10.727-2.802-6.515-10.063-9.482-16.536-10.727zm33.67-1.948c-4.062 6.596-5.85 15.42-4.748 22.956 4.838-6.568 5.728-15.03 4.747-22.956zm-11.24 46.832c.554-9.652-.233-18.977-1.79-28.407-.156-1.351-.695-2.993-1.965-3.63-7.022-3.403-17.834-4.513-19.775-13.482 1.389-1.023 2.833.075 4.137.588 5.942 1.73 11.407 4.487 14.322 10.232-.36-3.111-3.574-5.047-4.759-7.792-3.234-5.275-4.41-11.755-2.895-17.9.684-.06 1.067.165 1.325.654 2.344 4.253 4.514 8.663 5.488 13.445 1.038 4.771-.108 9.788 3.729 13.59-1.01-4.87 1.225-9.936.068-14.608-2.96-7.632-1.805-15.398.774-22.884 2.192.106 1.44 4.392 2.433 6.037 2.938 8.464-2.137 16.244-2.323 24.62 2.982-3.047 2.008-7.594 3.74-11.24 1.159-2.993 3.045-5.839 3.757-8.955-.047-.546.284-.652.796-.824 2.683 6.755-.217 16.136-6.587 19.656-4.791 8.1.815 18.289.64 27.22 1.887-3.155 3.481-6.486 4.242-10.005-.332-2.663-.384-5.261.196-7.91.24-6.303 2.993-11.762 5.397-17.29 1.89-1.967 1.238 3.577 1.397 4.575.821 7.285-.434 15.544-5.38 21.2-1.246 1.175-1.608 2.529-2.171 4.148 4.135-2.6 5.333-7.555 9.804-9.757 2.606-1.917 5.892-1.722 8.844-2.68.799-.3.788-.328 1.32.487-4.417 6.404-7.958 10.376-16.213 10.183-8.907 4.857-7.478 11.737-7.6 21.299l-.952-.57m-50.814 14.454a10.2 10.2 0 003.691 2.968 5.833 5.833 0 002.257.567c.792.038 1.598-.135 2.423-.52.825-.38 1.632-1.074 2.424-2.071.662-.842 1.097-1.615 1.295-2.316.198-.703.217-1.358.052-1.963-.162-.605-.485-1.187-.967-1.744a13.228 13.228 0 00-1.8-1.686l-2.477-1.957zm-.514-3.984a134.726 134.726 0 002.94-3.86 997.65 997.65 0 002.856-3.926c.408.388.826.776 1.253 1.16.424.384.861.752 1.3 1.1.22.172.494.374.82.6.328.228.655.464.984.707.33.244.647.473.957.687.309.212.565.397.768.557.274.215.606.496.994.835.385.34.768.733 1.141 1.188.372.453.7.952.986 1.496.286.544.459 1.144.522 1.797.065.655-.014 1.347-.236 2.082-.22.73-.656 1.508-1.306 2.331-1.022 1.294-2.113 2.134-3.271 2.523-1.158.388-2.294.508-3.411.358a9.34 9.34 0 01-3.143-1.006c-.977-.517-1.796-1.037-2.456-1.56-.42-.334-.803-.644-1.144-.928a18.923 18.923 0 01-1.015-.923l-1.279 1.615a138.28 138.28 0 00-2.95 3.874 487.712 487.712 0 00-2.774 3.82 19.63 19.63 0 00-2.696-2.132 618.25 618.25 0 003.077-3.583 135.565 135.565 0 003.088-3.764l3.995-5.048m22.491 9.131c.46-1.52.92-3.067 1.39-4.65.267.147.531.283.784.408.256.128.514.236.778.327.266.088.54.161.82.217.273.055.565.108.87.161a642.561 642.561 0 00-1.753 4.527 130.58 130.58 0 00-1.652 4.56 773.202 773.202 0 00-2.613 7.75c-.727 2.195-1.373 4.157-1.942 5.888 1.573.538 3.084 1.034 4.535 1.494 1.448.452 3.047.848 4.786 1.177-.255.39-.432.723-.528 1.008-.09.26-.144.6-.162 1.013a67.662 67.662 0 00-3.027-1.114l-3.058-1.045-3.068-1.052a78.931 78.931 0 00-3.097-.979 526.802 526.802 0 001.71-4.4 133.85 133.85 0 001.66-4.577l2.082-6.095a122.18 122.18 0 001.485-4.619m22.809 14.511c.607-.01 1.239-.01 1.893.004.654.013 1.287.013 1.895.005.656-.012 1.308-.03 1.965-.052.654-.025 1.31-.053 1.964-.089l-4.057-9.448zm15.736 11.377a6.18 6.18 0 00-.929-.06l-.93.016c-.33.007-.64.012-.931.016-.292.007-.6.035-.928.092a40.236 40.236 0 00-.7-2.066 95.378 95.378 0 00-.974-2.531c-.353-.88-.715-1.774-1.081-2.678-.366-.906-.709-1.767-1.026-2.586a164.467 164.467 0 00-4.597.002c-.725.014-1.438.033-2.139.057-.701.024-1.416.055-2.137.093a166.23 166.23 0 00-1.943 5.595c-.58 1.77-1.01 3.23-1.294 4.384-.398-.045-.83-.06-1.298-.052-.47.007-.9.04-1.296.097a976.894 976.894 0 005.319-13.124c1.728-4.35 3.467-8.772 5.215-13.27l.666-.013c.585 1.438 1.221 2.994 1.901 4.67.685 1.673 1.382 3.364 2.09 5.075a910.86 910.86 0 004.113 9.798 553.08 553.08 0 001.68 3.884c.498 1.141.906 2.01 1.219 2.601m19.078-16.454c-4.19-1.947-8.376-3.882-12.551-5.796a211.02 211.02 0 002.987 6.992c.213.48.481 1.069.806 1.769.325.706.666 1.443 1.018 2.215.355.77.723 1.552 1.097 2.338.378.788.727 1.522 1.053 2.196.325.678.613 1.264.862 1.77.248.501.423.841.527 1.014a9.706 9.706 0 00-1.153.43 9.959 9.959 0 00-1.157.596c-.059-.248-.2-.691-.419-1.331a58.517 58.517 0 00-.834-2.27c-.336-.875-.702-1.827-1.095-2.856a131.137 131.137 0 00-1.208-3.067c-.412-1.02-.823-2.012-1.224-2.98-.404-.967-.774-1.83-1.107-2.58-.974-2.19-1.817-4.073-2.524-5.643-.71-1.568-1.257-2.732-1.645-3.49l.511-.227c1.975.928 4.086 1.924 6.337 2.986 2.249 1.063 4.478 2.108 6.687 3.135 2.21 1.028 4.304 1.999 6.28 2.91a176.54 176.54 0 005.143 2.283l-2.067-4.653a522.167 522.167 0 00-3.157-6.979 183.078 183.078 0 00-3.053-6.325c.477-.073.864-.18 1.164-.312.258-.113.573-.323.95-.627.179.522.468 1.294.86 2.324.39 1.028.815 2.126 1.268 3.287.452 1.167.902 2.304 1.343 3.42a75.806 75.806 0 001.107 2.663l.91 2.051c.346.78.711 1.587 1.095 2.426.387.839.775 1.683 1.163 2.536l1.096 2.381c.341.735.632 1.379.876 1.926.221.501.388.88.5 1.129l-.45.2a367.664 367.664 0 00-11.996-5.841m13.513-26.279a87.52 87.52 0 00-1.313 1.392 49.5 49.5 0 00-1.337 1.49c-.433.505-.85 1-1.243 1.48a25.51 25.51 0 00-1.022 1.329 4.841 4.841 0 00-.742-.958c-.197-.19-.516-.416-.957-.677a726.7 726.7 0 003.236-3.168 183.288 183.288 0 006.283-6.516 707.49 707.49 0 003.046-3.346c.279.427.527.749.742.955.236.226.553.45.957.679-.395.301-.825.66-1.29 1.072-.467.41-.945.841-1.434 1.295-.492.454-.97.918-1.443 1.39-.473.471-.918.924-1.341 1.36a275.145 275.145 0 005.505 5.457l4.636 4.471a132.634 132.634 0 003.566 3.316 539.45 539.45 0 003.532 3.138c-.41.35-.826.746-1.248 1.185-.42.437-.803.868-1.14 1.29a494.46 494.46 0 00-3.26-3.414c-1.112-1.15-2.258-2.3-3.446-3.441l-4.634-4.474a305.55 305.55 0 00-5.654-5.305m30.112-6.297a5.972 5.972 0 001.634-.495 5.741 5.741 0 001.521-1.033c.481-.443.885-.999 1.21-1.674.338-.693.515-1.38.526-2.065a4.65 4.65 0 00-.353-1.927 5.047 5.047 0 00-1.108-1.652 6.268 6.268 0 00-1.75-1.241c-1.03-.504-1.973-.656-2.82-.458a6.946 6.946 0 00-2.412 1.11c-.761.54-1.52 1.151-2.269 1.84-.753.69-1.56 1.276-2.421 1.768a7.278 7.278 0 01-2.836.904c-1.027.112-2.2-.158-3.526-.799-.942-.459-1.724-1.036-2.344-1.728a6.227 6.227 0 01-1.338-2.345c-.268-.874-.355-1.807-.26-2.801.096-.993.398-2.016.912-3.073.489-1.006 1.044-1.815 1.66-2.427a7.031 7.031 0 012.194-1.466c.288.374.615.727.98 1.06.367.335.844.723 1.434 1.166l-.186.38a9.726 9.726 0 00-1.234-.075 4.437 4.437 0 00-2.7.929c-.419.318-.768.769-1.058 1.36a4.72 4.72 0 00-.486 1.77 4.214 4.214 0 001.142 3.21c.422.453.934.825 1.539 1.119 1.056.517 2.007.672 2.852.473a7.207 7.207 0 002.43-1.1 19.769 19.769 0 002.271-1.843c.74-.69 1.526-1.292 2.355-1.798a6.893 6.893 0 012.716-.96c.979-.135 2.09.1 3.324.697a9.257 9.257 0 012.676 1.95c.75.791 1.31 1.69 1.67 2.685.362.995.495 2.06.402 3.2-.096 1.135-.441 2.313-1.035 3.532-.636 1.305-1.337 2.272-2.1 2.901-.762.629-1.514 1.103-2.252 1.423a8.987 8.987 0 00-1.206-1.077c-.38-.274-.878-.604-1.499-.983l.185-.376a7.82 7.82 0 001.56-.081" fill="#4e5f55"/></svg>